<svg width="19" height="16" viewBox="0 0 19 16" xmlns="http://www.w3.org/2000/svg"><title>Shape + Shape</title><g fill="#757575" fill-rule="evenodd"><path d="M15.5 5c-.827 0-1.5-.673-1.5-1.5S14.673 2 15.5 2s1.5.673 1.5 1.5S16.327 5 15.5 5zm0-2a.5.5 0 1 0 0 1 .5.5 0 0 0 0-1z"/><path d="M17.5 0H14c-.688 0-1.574.367-2.061.854L4.353 8.44a1.488 1.488 0 0 0-.438 1.061c0 .402.156.778.438 1.061l2.602 2.602-1.095.632a.5.5 0 0 1-.683-.183L1.581 7.384a.5.5 0 0 1 .183-.683L9.75 2.09a.5.5 0 0 0-.5-.866L1.264 5.835a1.49 1.49 0 0 0-.698.911c-.104.388-.051.792.149 1.138l3.596 6.229a1.509 1.509 0 0 0 1.303.75c.26 0 .515-.068.746-.201l1.327-.766.752.752c.283.283.659.438 1.061.438.402 0 .778-.156 1.061-.438l7.586-7.586c.487-.487.853-1.372.853-2.061v-3.5c0-.827-.673-1.5-1.5-1.5V0zm.5 5c0 .415-.267 1.06-.561 1.354L9.853 13.94a.495.495 0 0 1-.354.145.5.5 0 0 1-.354-.145L5.059 9.854a.5.5 0 0 1 0-.707l7.586-7.586c.293-.293.939-.561 1.353-.561h3.5a.5.5 0 0 1 .5.5V5H18z"/></g></svg>