<svg width="18" height="18" viewBox="0 0 18 18" xmlns="http://www.w3.org/2000/svg"><title>bubble</title><path d="M9 17.35c-4.976 0-9-3.85-9-8.653C0 3.895 4.024 0 9 0c4.975 0 9 3.894 9 8.697 0 1.73-.52 3.332-1.429 4.673-.043.044-.086.13-.13.173a1.604 1.604 0 0 0-.173.65L17.22 18l-3.635-1.342c-.173-.086-.346-.086-.519-.086-.173 0-.303.043-.476.086-.044 0-.044.044-.087.044-1.082.433-2.25.65-3.505.65L9 17.35zm0-.927c-4.423 0-8-3.423-8-7.692S4.577 1 9 1s8 3.462 8 7.731a7.358 7.358 0 0 1-1.27 4.154c-.038.039-.076.116-.115.154a1.426 1.426 0 0 0-.154.577l.846 3.385-3.23-1.193c-.155-.077-.308-.077-.462-.077-.154 0-.27.039-.424.077-.038 0-.038.039-.077.039-.961.384-2 .577-3.115.577H9z" fill="#757575" fill-rule="evenodd"/></svg>